<svg width="18" height="18" viewBox="0 0 18 18" fill="none" xmlns="http://www.w3.org/2000/svg">
<path fill-rule="evenodd" clip-rule="evenodd" d="M18 0.75C18 0.551088 17.921 0.360322 17.7803 0.21967C17.6397 0.0790178 17.4489 0 17.25 0H8.25C8.05109 0 7.86033 0.0790178 7.71967 0.21967C7.57902 0.360322 7.5 0.551088 7.5 0.75C7.5 0.948913 7.57902 1.13968 7.71967 1.28033C7.86033 1.42098 8.05109 1.5 8.25 1.5H15.4395L0.219001 16.719C0.149269 16.7887 0.0939551 16.8715 0.0562165 16.9626C0.0184778 17.0537 -0.000946045 17.1514 -0.000946045 17.25C-0.000946045 17.3486 0.0184778 17.4463 0.0562165 17.5374C0.0939551 17.6285 0.149269 17.7113 0.219001 17.781C0.288733 17.8507 0.371517 17.906 0.462626 17.9438C0.553735 17.9815 0.651386 18.0009 0.750001 18.0009C0.848617 18.0009 0.946267 17.9815 1.03738 17.9438C1.12849 17.906 1.21127 17.8507 1.281 17.781L16.5 2.5605V9.75C16.5 9.94891 16.579 10.1397 16.7197 10.2803C16.8603 10.421 17.0511 10.5 17.25 10.5C17.4489 10.5 17.6397 10.421 17.7803 10.2803C17.921 10.1397 18 9.94891 18 9.75V0.75Z" fill="#0E0320"/>
</svg>
