<svg width="18" height="18" viewBox="0 0 18 18" fill="none" xmlns="http://www.w3.org/2000/svg">
<path fill-rule="evenodd" clip-rule="evenodd" d="M17.25 18.0009C17.4489 18.0009 17.6396 17.9219 17.7803 17.7813C17.921 17.6406 18 17.4499 18 17.2509L18 8.25095C18 8.05204 17.921 7.86127 17.7803 7.72062C17.6396 7.57997 17.4489 7.50095 17.25 7.50095C17.0511 7.50095 16.8603 7.57997 16.7196 7.72062C16.579 7.86127 16.5 8.05204 16.5 8.25095L16.5 15.4404L1.28097 0.219947C1.21124 0.150215 1.12845 0.0949012 1.03734 0.0571625C0.946234 0.0194239 0.848583 0 0.749968 0C0.65135 0 0.553699 0.0194239 0.462591 0.0571625C0.371483 0.0949012 0.288698 0.150215 0.218967 0.219947C0.149235 0.289679 0.0939198 0.372463 0.056181 0.463572C0.0184422 0.554681 -0.000980377 0.652332 -0.000980377 0.750947C-0.000980377 0.849563 0.0184422 0.947213 0.056181 1.03832C0.0939198 1.12943 0.149235 1.21222 0.218967 1.28195L15.4395 16.5009L8.24997 16.5009C8.05106 16.5009 7.86029 16.58 7.71964 16.7206C7.57899 16.8613 7.49997 17.052 7.49997 17.2509C7.49997 17.4499 7.57899 17.6406 7.71964 17.7813C7.86029 17.9219 8.05106 18.0009 8.24997 18.0009L17.25 18.0009Z" fill="#B46E9E"/>
</svg>
